<?xml version="1.0" encoding="UTF-8"?>
<!DOCTYPE svg PUBLIC "-//W3C//DTD SVG 1.1//EN" "http://www.w3.org/Graphics/SVG/1.1/DTD/svg11.dtd">
<svg xmlns="http://www.w3.org/2000/svg" version="1.1" width="1080px" height="1080px" style="shape-rendering:geometricPrecision; text-rendering:geometricPrecision; image-rendering:optimizeQuality; fill-rule:evenodd; clip-rule:evenodd" xmlns:xlink="http://www.w3.org/1999/xlink">
<g><path style="opacity:1" fill="#ededed" d="M -0.5,-0.5 C 359.5,-0.5 719.5,-0.5 1079.5,-0.5C 1079.5,359.5 1079.5,719.5 1079.5,1079.5C 719.5,1079.5 359.5,1079.5 -0.5,1079.5C -0.5,719.5 -0.5,359.5 -0.5,-0.5 Z"/></g>
<g><path style="opacity:1" fill="#232932" d="M 529.5,341.5 C 549.781,338.631 564.948,345.964 575,363.5C 581.351,384.95 574.851,401.116 555.5,412C 532.313,420.019 514.813,413.519 503,392.5C 496.01,367.143 504.844,350.143 529.5,341.5 Z"/></g>
<g><path style="opacity:1" fill="#222831" d="M 319.5,362.5 C 339.273,361.939 358.94,363.105 378.5,366C 389.863,368.423 400.863,371.923 411.5,376.5C 405.53,390.775 399.197,404.775 392.5,418.5C 372.037,411.097 351.037,408.93 329.5,412C 319.399,414.658 313.233,421.158 311,431.5C 310.5,444.496 310.333,457.496 310.5,470.5C 334.176,470.167 357.843,470.5 381.5,471.5C 378.735,486.092 376.401,500.758 374.5,515.5C 353.167,515.5 331.833,515.5 310.5,515.5C 310.5,568.833 310.5,622.167 310.5,675.5C 288.833,675.5 267.167,675.5 245.5,675.5C 245.5,622.167 245.5,568.833 245.5,515.5C 230.167,515.5 214.833,515.5 199.5,515.5C 199.5,500.5 199.5,485.5 199.5,470.5C 214.833,470.5 230.167,470.5 245.5,470.5C 245.333,455.83 245.5,441.163 246,426.5C 251.884,395.948 269.717,376.115 299.5,367C 306.276,365.378 312.943,363.878 319.5,362.5 Z"/></g>
<g><path style="opacity:1" fill="#222831" d="M 811.5,448.5 C 851.972,445.504 875.472,463.837 882,503.5C 882.5,560.832 882.667,618.166 882.5,675.5C 860.833,675.5 839.167,675.5 817.5,675.5C 817.667,624.166 817.5,572.832 817,521.5C 816.553,501.862 806.72,494.029 787.5,498C 775.335,502.824 765.502,510.657 758,521.5C 757.5,572.832 757.333,624.166 757.5,675.5C 735.833,675.5 714.167,675.5 692.5,675.5C 692.5,602.5 692.5,529.5 692.5,456.5C 711.512,456.167 730.512,456.5 749.5,457.5C 750.89,465.506 752.39,473.506 754,481.5C 769.345,463.585 788.511,452.585 811.5,448.5 Z"/></g>
<g><path style="opacity:1" fill="#222831" d="M 578.5,630.5 C 596.659,631.497 614.992,631.83 633.5,631.5C 633.5,646.167 633.5,660.833 633.5,675.5C 572.833,675.5 512.167,675.5 451.5,675.5C 451.5,660.5 451.5,645.5 451.5,630.5C 471.833,630.5 492.167,630.5 512.5,630.5C 513.499,587.337 513.832,544.003 513.5,500.5C 493.5,500.5 473.5,500.5 453.5,500.5C 453.5,485.833 453.5,471.167 453.5,456.5C 495.167,456.5 536.833,456.5 578.5,456.5C 578.5,514.5 578.5,572.5 578.5,630.5 Z"/></g>
<g><path style="opacity:1" fill="#c3c4c7" d="M 453.5,500.5 C 473.5,500.5 493.5,500.5 513.5,500.5C 513.832,544.003 513.499,587.337 512.5,630.5C 512.5,587.5 512.5,544.5 512.5,501.5C 492.66,501.83 472.993,501.497 453.5,500.5 Z"/></g>
<g><path style="opacity:1" fill="#51565d" d="M 578.5,630.5 C 597.167,630.5 615.833,630.5 634.5,630.5C 634.829,645.676 634.496,660.676 633.5,675.5C 633.5,660.833 633.5,646.167 633.5,631.5C 614.992,631.83 596.659,631.497 578.5,630.5 Z"/></g>
</svg>
